<?xml version="1.0" standalone="no"?>
<!DOCTYPE svg PUBLIC "-//W3C//DTD SVG 20010904//EN"
 "http://www.w3.org/TR/2001/REC-SVG-20010904/DTD/svg10.dtd">
<svg version="1.0" xmlns="http://www.w3.org/2000/svg"
 width="2976.000000pt" height="2976.000000pt" viewBox="0 0 2976.000000 2976.000000"
 preserveAspectRatio="xMidYMid meet">
<metadata>
Created by potrace 1.14, written by Peter Selinger 2001-2017
</metadata>
<g transform="translate(0.000000,2976.000000) scale(0.100000,-0.100000)"
fill="#000000" stroke="none">
<path d="M5076 19671 c-13 -21 -62 -113 -116 -216 -35 -66 -68 -123 -74 -127
-6 -4 -7 -8 -3 -8 5 0 -5 -24 -21 -52 -16 -29 -53 -98 -82 -153 -29 -55 -57
-106 -62 -112 -6 -7 -7 -13 -2 -13 5 0 4 -4 -1 -8 -6 -4 -22 -29 -36 -57 -63
-122 -155 -296 -190 -357 -21 -38 -35 -68 -31 -68 4 0 3 -4 -3 -8 -5 -4 -21
-27 -33 -52 -139 -268 -187 -356 -196 -362 -6 -4 -8 -8 -4 -8 4 0 -8 -27 -27
-59 -18 -33 -36 -69 -40 -80 -3 -12 -10 -21 -15 -21 -4 0 -11 -12 -15 -27 -3
-16 -14 -36 -22 -45 -9 -10 -13 -18 -8 -18 4 0 3 -6 -3 -12 -15 -19 -114 -202
-160 -296 -7 -15 -17 -34 -22 -42 -5 -8 -19 -35 -32 -60 -12 -25 -30 -57 -40
-71 -10 -14 -15 -28 -12 -31 2 -3 -2 -11 -11 -18 -8 -7 -15 -16 -15 -21 0 -5
-20 -45 -45 -90 -25 -45 -45 -87 -45 -94 0 -8 -4 -15 -8 -17 -4 -1 -24 -34
-44 -73 -20 -38 -47 -90 -60 -115 -13 -25 -25 -47 -28 -50 -5 -5 -73 -135
-118 -225 -13 -27 -28 -52 -32 -55 -4 -3 -13 -22 -19 -42 -7 -21 -16 -40 -21
-43 -4 -3 -34 -55 -65 -117 -32 -62 -62 -116 -67 -119 -5 -3 -9 -8 -8 -10 2
-7 -21 -63 -28 -69 -4 -3 -27 -45 -52 -95 -25 -49 -47 -92 -50 -95 -3 -3 -20
-34 -38 -70 -18 -36 -51 -99 -73 -140 -58 -106 -69 -129 -70 -137 -1 -5 -9
-19 -18 -33 -10 -14 -30 -50 -45 -80 -28 -56 -76 -148 -148 -280 -56 -103 -88
-168 -88 -179 0 -5 -4 -11 -8 -13 -5 -1 -39 -61 -76 -132 -155 -298 -200 -381
-208 -384 -4 -2 -6 -7 -3 -12 3 -5 0 -14 -7 -22 -7 -7 -24 -36 -37 -63 -14
-28 -42 -80 -62 -117 -20 -36 -35 -69 -31 -72 3 -3 1 -6 -4 -6 -6 0 -18 -20
-28 -45 -11 -25 -23 -45 -28 -45 -4 0 -8 -8 -8 -18 0 -10 -4 -22 -9 -27 -9
-10 -49 -84 -128 -235 -66 -125 -139 -262 -197 -370 -28 -52 -51 -98 -51 -102
0 -4 -6 -13 -12 -19 -7 -7 -13 -19 -13 -26 0 -7 -5 -13 -12 -13 -6 0 -9 -3 -5
-6 3 -3 -12 -38 -34 -77 -22 -40 -49 -92 -62 -117 -12 -25 -24 -47 -27 -50 -3
-3 -20 -34 -38 -70 -54 -104 -157 -300 -189 -360 -30 -56 -111 -207 -215 -405
-32 -60 -73 -139 -90 -175 -18 -36 -36 -67 -39 -70 -5 -4 -67 -124 -107 -205
-9 -16 -24 -42 -34 -57 -11 -16 -16 -28 -12 -28 3 0 1 -7 -6 -15 -6 -8 -28
-45 -47 -82 -19 -37 -57 -110 -84 -162 -27 -52 -54 -100 -60 -108 -6 -7 -8
-13 -3 -13 5 0 4 -4 -2 -8 -6 -4 -24 -34 -40 -67 -36 -71 -139 -267 -164 -310
-10 -16 -48 -88 -85 -160 -71 -136 -141 -270 -183 -345 -13 -24 -59 -112 -102
-195 l-79 -150 710 0 c697 0 709 0 722 20 15 21 101 180 151 280 17 33 33 62
36 65 3 3 19 32 35 65 63 124 150 290 155 295 3 3 29 50 57 105 28 55 67 129
86 165 20 36 46 85 58 110 13 25 44 84 70 133 26 48 45 87 41 87 -3 0 1 6 10
13 8 6 21 28 28 47 8 19 16 37 19 40 4 3 13 19 21 35 8 17 30 56 47 88 18 33
33 65 33 73 0 8 4 14 9 14 5 0 18 21 30 48 35 77 133 256 143 263 5 3 9 9 9
13 -1 7 41 99 48 106 3 3 24 41 46 85 22 44 43 81 48 83 4 2 7 12 7 23 0 10 5
19 10 19 6 0 10 6 10 14 0 8 6 21 13 28 8 7 19 30 26 51 7 20 16 39 20 42 5 2
34 55 66 117 32 62 61 118 65 123 4 6 40 73 80 150 40 77 85 163 100 190 33
60 139 262 171 325 12 25 29 53 37 63 8 9 12 17 7 17 -4 0 -3 6 3 13 10 13 81
144 120 222 14 28 34 62 44 78 11 15 17 27 14 27 -3 0 8 23 24 50 17 28 30 52
30 54 0 2 16 32 34 65 19 34 32 61 28 61 -4 0 -2 4 3 8 6 4 23 31 38 60 72
139 82 157 89 160 5 2 8 11 8 21 0 9 4 21 10 27 5 5 32 52 59 104 135 260 174
335 180 340 3 3 31 55 61 115 30 61 58 111 63 113 4 2 7 10 7 18 0 8 11 32 25
52 14 20 25 41 25 45 0 5 9 22 21 38 11 16 18 29 15 29 -4 0 4 17 17 38 13 20
36 63 52 95 15 31 33 57 38 57 6 0 7 3 4 6 -4 4 12 41 35 83 22 42 55 103 73
136 18 33 54 101 80 150 26 50 52 96 57 103 6 6 7 12 4 12 -4 0 1 12 12 28 10
15 31 52 46 82 16 30 51 98 79 150 28 52 67 127 86 165 20 39 40 73 44 76 5 3
9 12 10 20 2 8 13 31 25 50 12 20 22 41 22 46 0 6 7 16 15 23 8 7 15 21 15 31
0 11 3 19 8 19 4 0 18 24 31 53 13 28 27 54 30 57 3 3 24 41 46 85 21 44 44
83 50 87 5 4 6 8 1 8 -5 0 -3 6 3 13 10 13 23 37 129 242 26 50 49 92 52 95 3
3 24 41 46 85 50 96 137 261 174 330 15 28 49 93 76 145 27 52 51 97 54 100 5
5 86 161 160 305 19 39 37 72 40 75 3 3 16 25 28 50 30 58 134 255 182 345 59
110 90 174 89 181 0 4 4 10 9 13 6 3 40 65 78 136 110 214 123 236 135 251 6
8 8 14 3 14 -5 0 -4 4 1 8 15 11 67 112 58 112 -4 0 -3 4 3 8 6 4 42 66 79
137 38 72 74 139 82 150 7 11 13 24 13 30 0 12 -1417 18 -1424 6z"/>
<path d="M7483 19571 c-32 -58 -58 -110 -58 -114 0 -4 -7 -12 -15 -17 -8 -5
-11 -10 -7 -10 5 0 -2 -19 -16 -42 -13 -24 -49 -90 -78 -148 -30 -58 -56 -107
-59 -110 -3 -3 -18 -30 -32 -60 -15 -30 -52 -100 -81 -155 -29 -55 -82 -154
-116 -220 -35 -66 -72 -134 -82 -152 -32 -57 -57 -108 -57 -117 0 -5 -4 -12
-9 -15 -4 -3 -25 -40 -47 -81 -21 -41 -59 -113 -84 -159 -48 -88 -114 -215
-178 -341 -21 -41 -41 -77 -44 -80 -3 -3 -18 -32 -35 -65 -16 -33 -34 -63 -40
-67 -5 -4 -6 -8 -1 -8 5 0 4 -6 -2 -12 -10 -13 -87 -156 -151 -283 -20 -38
-42 -76 -49 -83 -7 -8 -10 -17 -7 -22 3 -5 2 -10 -3 -12 -4 -1 -25 -37 -46
-78 -90 -176 -206 -391 -219 -407 -5 -7 -6 -13 -3 -13 4 0 -1 -12 -12 -27 -10
-16 -36 -62 -57 -103 -21 -41 -50 -97 -65 -125 -15 -27 -55 -104 -90 -170 -35
-66 -73 -139 -86 -162 -12 -22 -20 -44 -17 -47 4 -3 2 -6 -3 -6 -6 0 -35 -48
-65 -107 -29 -60 -58 -111 -62 -114 -5 -3 -10 -12 -11 -20 -5 -25 -29 -69 -38
-69 -4 0 -7 -3 -6 -7 2 -8 -16 -45 -72 -148 -18 -33 -58 -109 -89 -170 -31
-60 -59 -112 -62 -115 -8 -7 -22 -44 -21 -52 1 -5 -1 -8 -6 -8 -4 0 -16 -20
-27 -45 -11 -25 -23 -45 -27 -45 -5 0 -8 -9 -8 -19 0 -11 -3 -21 -7 -23 -5 -2
-21 -28 -37 -58 -101 -194 -137 -263 -279 -530 -28 -52 -64 -122 -81 -155 -17
-33 -34 -62 -37 -65 -3 -3 -11 -21 -19 -40 -8 -19 -17 -37 -20 -40 -6 -5 -21
-34 -106 -200 -16 -30 -33 -58 -39 -62 -5 -4 -6 -8 -1 -8 5 0 4 -6 -2 -13 -6
-7 -28 -46 -50 -87 -21 -41 -65 -124 -97 -185 -32 -60 -70 -132 -84 -160 -14
-27 -30 -53 -36 -57 -5 -4 -6 -8 -1 -8 5 0 4 -6 -1 -12 -6 -7 -34 -58 -63
-113 -29 -55 -70 -131 -90 -170 -53 -100 -131 -247 -176 -335 -21 -41 -41 -77
-44 -80 -4 -4 -40 -73 -128 -245 -14 -27 -32 -58 -40 -67 -9 -10 -12 -18 -8
-18 4 0 -2 -13 -13 -29 -12 -16 -21 -36 -21 -45 0 -9 -4 -16 -10 -16 -5 0 -10
-6 -10 -13 0 -7 -11 -29 -25 -50 -14 -20 -23 -37 -19 -37 4 0 -1 -9 -11 -20
-10 -11 -14 -20 -9 -20 5 0 4 -4 -2 -8 -6 -4 -22 -29 -35 -57 -35 -71 -167
-320 -201 -380 -15 -27 -38 -71 -49 -97 -12 -27 -25 -48 -30 -48 -5 0 -9 -6
-9 -12 0 -7 -6 -24 -13 -38 -8 -14 -33 -61 -57 -105 -23 -44 -65 -123 -92
-175 -28 -52 -73 -138 -101 -190 -59 -111 -113 -214 -191 -361 -30 -59 -67
-129 -82 -155 -29 -54 -112 -211 -152 -289 -14 -27 -25 -53 -24 -57 1 -5 -2
-8 -7 -8 -8 0 -48 -75 -53 -102 -2 -9 88 -12 422 -13 234 -1 430 1 437 3 6 2
32 44 58 94 26 50 59 114 74 142 16 28 58 110 96 181 37 72 73 136 78 144 6 7
12 20 13 29 2 8 6 18 11 21 4 3 24 38 43 76 19 39 47 91 62 118 15 26 25 47
22 47 -4 0 -1 7 6 15 6 8 28 45 47 82 20 37 51 97 71 133 19 36 54 101 77 145
61 117 164 311 202 380 43 80 66 129 65 137 -1 3 5 12 13 18 8 7 15 18 15 25
0 7 7 18 15 25 8 7 15 21 15 30 0 10 3 20 8 22 7 3 40 65 139 258 21 41 40 77
43 80 3 3 19 32 36 65 17 33 53 103 81 155 28 52 70 133 94 180 24 47 46 87
49 90 3 3 22 39 44 80 44 85 123 237 186 355 23 44 65 123 92 175 28 52 67
127 88 165 20 39 61 115 90 170 29 55 57 106 63 113 5 6 6 12 2 12 -5 0 -1 8
7 18 8 9 28 44 44 77 16 33 32 62 35 65 3 3 14 23 25 45 10 22 23 43 28 47 6
4 7 8 2 8 -5 0 -1 9 9 20 10 11 15 20 10 20 -4 0 -3 6 3 13 10 11 47 80 108
197 15 30 32 58 37 61 5 3 8 8 6 10 -2 4 27 65 71 144 15 28 45 84 66 125 21
41 43 78 49 82 5 4 6 8 1 8 -5 0 -4 6 2 13 5 6 35 62 67 122 32 61 72 137 90
170 18 33 55 103 82 155 28 52 70 131 93 175 23 44 65 123 93 175 27 52 62
118 78 146 15 28 25 54 22 58 -4 3 -2 6 4 6 6 0 16 15 24 33 7 17 15 34 18 37
3 3 18 28 32 55 44 84 139 265 187 355 25 47 54 103 65 125 10 22 26 48 35 58
8 9 12 17 7 17 -4 0 -1 10 7 23 20 30 111 200 230 427 12 25 25 47 28 50 3 3
29 52 58 110 30 58 78 150 107 205 30 55 72 136 95 180 23 44 56 107 74 140
18 33 57 107 88 165 30 58 77 146 103 195 94 177 138 262 198 375 33 63 79
150 103 193 23 42 40 77 38 77 -3 0 2 7 10 16 9 8 14 20 11 25 -4 5 -2 9 3 9
9 0 37 50 34 62 -1 3 5 12 13 18 8 7 15 16 15 21 0 5 21 49 47 97 26 48 47 90
45 95 -1 4 3 7 8 7 6 0 10 4 10 8 0 5 21 46 46 93 25 46 46 88 47 94 1 5 8 16
15 23 6 7 12 20 12 28 0 8 5 14 12 14 6 0 8 3 5 7 -4 3 -3 11 2 17 5 6 28 47
51 91 23 44 47 86 52 93 6 6 7 12 2 12 -5 0 -4 4 1 8 6 4 18 21 26 37 8 17 29
58 47 92 18 35 33 66 35 70 1 5 -195 8 -435 9 l-438 1 -57 -106z"/>
<path d="M9439 19576 c-29 -56 -57 -104 -63 -108 -6 -4 -7 -8 -2 -8 5 0 4 -6
-2 -12 -6 -7 -36 -62 -67 -123 -32 -60 -62 -116 -67 -122 -6 -7 -7 -13 -2 -13
5 0 4 -4 -2 -8 -5 -4 -18 -25 -28 -47 -11 -22 -22 -42 -25 -45 -3 -3 -30 -52
-59 -110 -30 -58 -76 -145 -102 -195 -54 -100 -123 -231 -196 -375 -27 -52
-52 -97 -55 -100 -3 -3 -29 -52 -59 -110 -29 -58 -57 -106 -61 -108 -5 -2 -9
-8 -9 -14 0 -12 -51 -120 -61 -128 -3 -3 -19 -32 -34 -65 -16 -33 -32 -62 -35
-65 -3 -3 -19 -32 -35 -65 -16 -33 -38 -72 -47 -86 -10 -14 -15 -29 -11 -33 3
-3 2 -6 -4 -6 -9 0 -21 -27 -21 -47 0 -3 -5 -9 -10 -12 -10 -7 -63 -107 -61
-117 0 -4 -3 -10 -8 -13 -4 -3 -22 -33 -39 -66 -177 -339 -175 -335 -193 -357
-8 -10 -11 -18 -6 -18 4 0 3 -6 -3 -12 -5 -7 -32 -56 -60 -109 -72 -137 -74
-142 -84 -159 -4 -8 -14 -26 -20 -40 -7 -14 -20 -37 -31 -52 -10 -16 -16 -28
-13 -28 3 0 -8 -23 -24 -50 -17 -28 -30 -55 -30 -60 0 -6 -3 -10 -7 -10 -5 0
-17 -21 -27 -48 -11 -26 -22 -49 -25 -52 -4 -3 -26 -43 -50 -90 -24 -47 -56
-107 -71 -135 -15 -27 -53 -99 -85 -160 -32 -60 -62 -116 -68 -122 -5 -7 -6
-13 -1 -13 5 0 4 -4 -1 -8 -6 -4 -22 -29 -36 -57 -40 -77 -157 -301 -205 -390
-24 -44 -60 -114 -81 -155 -21 -41 -40 -77 -43 -80 -5 -5 -30 -51 -137 -260
-21 -41 -40 -77 -43 -80 -3 -3 -21 -36 -40 -75 -19 -38 -37 -72 -40 -75 -3 -3
-18 -32 -34 -65 -16 -33 -38 -72 -48 -87 -11 -16 -17 -28 -14 -28 4 0 -4 -17
-16 -37 -13 -21 -32 -56 -43 -78 -11 -22 -22 -42 -25 -45 -3 -3 -16 -29 -29
-57 -14 -29 -28 -53 -33 -53 -4 0 -8 -9 -8 -19 0 -11 -6 -26 -12 -33 -7 -7
-26 -41 -42 -75 -16 -35 -34 -63 -40 -63 -5 0 -7 -3 -4 -6 3 -3 -11 -37 -33
-75 -21 -38 -50 -93 -64 -122 -15 -29 -41 -79 -59 -112 -18 -33 -64 -121 -103
-195 -39 -74 -88 -166 -108 -205 -21 -38 -55 -104 -77 -145 -21 -41 -70 -133
-108 -205 -39 -71 -84 -159 -102 -195 -18 -36 -36 -67 -39 -70 -3 -3 -11 -20
-18 -37 -8 -18 -18 -33 -24 -33 -6 0 -7 -3 -4 -7 4 -3 1 -16 -6 -27 -8 -12
-40 -70 -72 -131 -32 -60 -77 -146 -100 -190 -43 -80 -78 -148 -167 -317 -26
-49 -54 -101 -63 -114 -8 -13 -13 -24 -10 -24 4 0 -3 -12 -14 -26 -11 -15 -18
-30 -15 -35 3 -5 2 -9 -3 -9 -4 0 -13 -10 -18 -23 -20 -41 -110 -212 -115
-217 -3 -3 -20 -36 -39 -75 -19 -38 -39 -76 -45 -84 -5 -7 -11 -20 -12 -29 -2
-8 -7 -18 -11 -21 -5 -3 -23 -35 -41 -71 -17 -36 -52 -103 -77 -150 -44 -81
-123 -230 -208 -390 -22 -41 -60 -115 -86 -165 -25 -49 -52 -96 -59 -103 -7
-8 -10 -17 -7 -22 3 -5 2 -10 -2 -12 -7 -3 -96 -168 -128 -235 -5 -13 -14 -23
-18 -23 -5 0 -6 -4 -2 -9 3 -5 1 -12 -5 -16 -49 -30 -13 -30 3363 -30 l3372 0
0 762 c0 507 -3 764 -10 766 -5 2 -956 3 -2113 3 -2091 -1 -2139 0 -2092 29 6
3 10 15 10 25 0 10 4 20 8 22 5 2 38 59 74 128 121 231 160 305 179 336 10 17
16 34 12 37 -3 4 -2 7 4 7 6 0 18 17 27 38 9 20 30 62 47 92 17 30 53 100 82
155 28 55 54 102 57 105 3 3 32 58 65 122 33 65 64 118 68 118 5 0 6 3 4 8 -3
4 13 39 34 77 21 39 59 110 84 159 26 49 59 112 75 140 15 28 58 110 95 181
85 164 114 217 127 233 6 6 7 12 4 12 -4 0 2 13 13 29 12 16 21 36 21 45 0 9
4 16 8 16 4 0 15 15 23 33 38 80 163 313 171 318 6 3 10 10 10 15 1 11 21 57
28 64 3 3 21 37 40 75 19 39 37 72 40 75 3 3 22 39 42 80 63 125 122 235 129
240 4 3 11 18 14 33 4 15 11 30 16 33 5 2 16 22 26 42 9 20 30 58 45 85 15 26
24 47 20 47 -4 0 -2 4 3 8 6 4 25 36 44 72 18 36 57 110 86 165 30 55 69 129
87 165 18 36 35 67 38 70 3 3 17 30 32 60 15 30 50 98 78 150 72 132 155 289
210 395 45 86 125 237 196 369 18 34 43 81 55 106 69 137 194 365 201 368 4 2
6 7 3 12 -3 5 2 16 11 24 8 9 12 16 8 16 -3 0 -2 6 3 13 6 6 34 57 63 112 29
55 67 127 85 160 47 88 95 184 96 192 0 5 7 12 15 16 8 5 12 12 9 18 -4 5 -1
9 5 9 6 0 9 4 6 9 -3 5 2 19 12 32 10 13 28 45 41 72 13 26 25 47 27 47 2 0
95 -174 172 -323 16 -31 35 -64 42 -72 7 -8 9 -15 4 -15 -5 0 -4 -4 1 -8 6 -4
36 -56 67 -117 31 -60 70 -135 87 -165 16 -30 44 -82 60 -115 43 -84 119 -226
137 -252 8 -13 11 -23 8 -23 -4 0 0 -8 8 -17 15 -18 28 -47 27 -59 0 -4 3 -10
8 -13 5 -3 25 -37 45 -76 20 -38 55 -104 77 -145 23 -41 58 -109 78 -150 21
-41 40 -77 43 -80 3 -3 18 -30 33 -60 16 -30 47 -91 71 -135 23 -44 75 -142
114 -218 40 -76 83 -157 96 -180 13 -23 47 -87 76 -142 105 -199 133 -250 143
-262 5 -7 6 -13 1 -13 -5 0 -4 -4 1 -8 6 -4 25 -36 44 -72 60 -117 153 -293
191 -365 21 -38 60 -113 88 -165 27 -52 70 -135 97 -185 26 -49 63 -121 84
-160 20 -38 39 -71 44 -73 4 -2 7 -12 7 -22 0 -10 4 -20 8 -22 4 -1 25 -38 47
-81 21 -43 42 -80 47 -83 5 -3 6 -9 3 -14 -3 -5 -1 -11 4 -15 6 -3 32 -49 59
-103 54 -105 72 -139 87 -162 5 -8 10 -20 11 -27 1 -7 12 -26 23 -42 12 -16
21 -36 21 -44 0 -9 4 -17 8 -19 4 -2 26 -39 47 -83 22 -44 43 -82 46 -85 3 -3
18 -31 34 -63 15 -31 32 -60 36 -63 5 -3 7 -9 4 -14 -3 -4 2 -13 10 -20 8 -7
12 -16 9 -21 -3 -5 -2 -9 3 -9 4 0 19 -24 33 -53 14 -28 27 -54 30 -57 3 -3
25 -45 50 -95 25 -49 50 -93 55 -97 6 -4 6 -8 1 -8 -5 0 -4 -6 2 -13 11 -13
61 -107 151 -282 31 -60 58 -112 61 -115 5 -5 17 -26 107 -200 22 -41 58 -110
81 -152 23 -43 39 -78 36 -78 -3 0 2 -7 10 -16 9 -8 16 -22 16 -30 0 -8 5 -14
10 -14 6 0 10 -5 10 -12 0 -6 27 -58 60 -115 33 -56 60 -105 60 -107 0 -9 143
-221 151 -224 5 -2 9 -9 9 -16 0 -7 8 -22 18 -34 9 -11 24 -30 32 -42 8 -12
27 -36 41 -52 42 -48 49 -57 49 -62 0 -16 268 -290 339 -346 24 -19 48 -40 55
-45 6 -6 33 -26 61 -45 27 -19 58 -43 69 -52 11 -10 25 -18 32 -18 7 0 14 -4
16 -9 7 -19 311 -177 359 -186 9 -2 25 -8 35 -14 39 -21 271 -93 354 -110 25
-5 56 -12 70 -15 14 -3 43 -9 65 -12 22 -3 49 -8 60 -10 85 -15 85 -15 85 19
0 51 1 1417 0 1469 l0 47 -67 32 c-190 90 -382 258 -488 428 -5 9 -13 18 -16
21 -3 3 -18 30 -33 60 -15 30 -37 70 -48 88 -11 17 -16 32 -11 32 4 0 3 4 -3
8 -11 7 -44 64 -45 79 -1 5 -9 19 -18 33 -10 14 -35 59 -56 100 -21 41 -52
102 -70 135 -43 80 -118 221 -170 320 -45 86 -110 208 -182 344 -129 240 -166
311 -190 361 -15 30 -30 57 -33 60 -3 3 -18 30 -32 60 -15 30 -51 98 -79 150
-88 164 -93 175 -94 183 0 4 -6 11 -13 16 -8 5 -13 11 -13 15 1 7 -35 80 -79
161 -15 28 -49 93 -76 145 -27 52 -51 97 -54 100 -3 3 -25 44 -50 92 -56 110
-100 193 -125 238 -10 19 -19 37 -20 40 0 3 -19 39 -42 80 -38 69 -69 129
-175 330 -22 41 -44 80 -49 86 -5 6 -6 14 -2 17 3 4 1 7 -6 7 -7 0 -10 4 -7 9
4 5 3 11 -1 13 -5 1 -23 32 -42 68 -63 122 -114 215 -124 228 -5 6 -6 12 -2
12 4 0 3 6 -3 13 -10 11 -38 63 -116 212 -17 33 -33 62 -36 65 -3 3 -22 39
-43 80 -20 41 -61 120 -90 175 -29 55 -82 154 -117 220 -35 66 -68 123 -74
127 -6 4 -8 8 -3 8 4 0 -8 28 -26 63 -64 117 -115 212 -165 307 -27 52 -69
131 -92 175 -24 44 -57 107 -73 140 -17 33 -34 62 -37 65 -3 3 -29 51 -58 108
-90 177 -117 227 -125 230 -4 2 -5 8 -1 13 3 5 0 9 -7 9 -7 0 -9 3 -6 7 4 3 3
11 -2 17 -9 11 -54 95 -143 266 -85 162 -141 264 -151 278 -5 6 -6 12 -2 12 5
0 2 8 -6 18 -8 9 -24 35 -36 57 -11 22 -44 85 -73 140 -88 168 -151 288 -180
340 -15 28 -51 95 -80 150 -28 55 -56 106 -62 113 -6 6 -7 12 -3 12 4 0 2 6
-4 14 -11 13 -39 64 -114 209 -19 37 -40 73 -45 80 -6 7 -12 19 -14 27 -2 7
-15 34 -29 60 l-25 45 -582 1 -582 1 -51 -101z"/>
<path d="M18297 19674 c-1 -1 -45 -5 -97 -8 -52 -3 -104 -8 -115 -10 -18 -3
-123 -17 -167 -22 -10 -1 -19 -2 -20 -4 -6 -4 -107 -22 -128 -22 -8 -1 -21 -5
-27 -11 -7 -5 -13 -7 -13 -4 0 4 -18 0 -40 -8 -22 -8 -43 -14 -45 -14 -16 1
-72 -15 -82 -23 -7 -6 -13 -8 -13 -5 0 3 -26 -3 -57 -14 -32 -11 -62 -22 -68
-23 -5 -2 -19 -7 -30 -11 -11 -5 -42 -17 -69 -27 -163 -63 -374 -182 -531
-300 -115 -86 -296 -264 -375 -368 -14 -18 -32 -41 -40 -51 -47 -58 -139 -201
-140 -216 0 -7 -4 -13 -10 -13 -5 0 -10 -5 -10 -11 0 -6 -9 -23 -19 -37 -10
-15 -19 -30 -20 -34 -1 -6 -34 -81 -82 -183 -18 -39 -81 -220 -85 -245 -3 -14
-9 -36 -13 -50 -9 -25 -21 -71 -27 -100 -1 -8 -5 -26 -8 -40 -16 -69 -24 -112
-30 -160 -3 -19 -8 -55 -12 -80 -10 -70 -13 -97 -19 -205 -9 -140 -10 -1229
-1 -1243 4 -7 4 -12 -1 -12 -10 0 -8 -293 1 -309 4 -6 4 -11 -1 -11 -10 0 -9
-2853 1 -2869 4 -6 4 -11 -1 -11 -10 0 -8 -293 1 -309 4 -6 4 -11 -1 -11 -10
0 -9 -1573 1 -1589 4 -6 4 -11 -1 -11 -10 0 -8 -293 1 -309 4 -6 4 -11 -1 -11
-4 0 -8 -135 -8 -300 l0 -300 4070 3 c2239 1 4081 5 4095 9 14 4 45 9 70 13
25 4 56 8 70 10 38 6 83 16 90 20 4 2 22 7 41 10 45 9 63 13 67 15 1 2 5 3 10
4 49 13 103 30 127 41 17 7 68 28 115 46 47 18 100 41 118 51 18 10 39 18 46
18 8 0 16 3 18 8 2 4 50 34 108 66 58 32 107 61 110 65 3 3 32 24 65 46 33 22
62 42 65 45 3 3 32 27 65 52 63 48 86 68 175 153 70 67 133 135 190 205 25 30
50 60 57 68 7 7 20 26 30 42 9 17 21 30 25 30 4 0 8 7 8 15 0 9 6 18 14 21 8
3 20 19 26 35 7 16 16 29 21 29 5 0 9 5 9 10 0 13 91 173 103 181 5 3 8 8 6
10 -1 2 13 38 33 79 19 41 44 100 55 130 12 30 25 64 29 75 4 11 8 22 9 25 1
3 4 12 8 20 18 46 70 263 83 350 3 19 7 46 9 60 15 96 17 333 17 1505 0 726
-1 1335 -1 1353 l-1 32 -3077 -2 -3078 -3 0 -765 0 -765 2280 -2 c1254 -1
2291 -2 2305 -3 l25 0 -2 -432 c-1 -238 -2 -433 -3 -433 0 0 -3 -25 -5 -55 -5
-74 -13 -124 -29 -187 -8 -29 -12 -53 -9 -53 3 0 1 -6 -4 -12 -5 -7 -20 -42
-33 -78 -56 -160 -173 -318 -315 -424 -79 -60 -233 -143 -253 -137 -1 1 -16
-6 -32 -14 -16 -8 -32 -15 -35 -15 -3 1 -29 -3 -58 -9 -28 -6 -68 -14 -87 -17
-35 -7 -6271 -13 -6300 -6 -14 3 -15 299 -15 2810 1 1544 5 2823 9 2842 4 19
9 44 11 55 2 11 4 21 5 23 4 4 7 15 15 60 4 23 12 42 17 42 6 0 8 7 4 15 -3 8
-1 15 4 15 6 0 9 3 8 8 -1 4 5 23 14 43 9 20 19 45 22 57 4 12 12 22 17 22 5
0 9 6 9 13 0 22 111 167 179 235 65 64 189 151 276 192 28 13 52 24 55 25 3 0
10 3 15 6 6 4 24 10 40 14 45 12 45 12 48 15 3 3 29 9 67 15 19 4 53 11 75 15
23 6 1681 10 3934 10 2142 0 3896 2 3899 5 7 6 6 1501 -1 1512 -5 8 -7841 15
-7850 7z"/>
<path d="M26834 18914 l0 -764 181 -1 c219 -1 297 -6 385 -25 14 -3 34 -7 45
-9 11 -2 21 -4 23 -5 1 -2 5 -3 10 -4 4 -1 13 -5 20 -9 6 -5 12 -6 12 -3 0 6
78 -23 140 -52 69 -32 176 -108 240 -172 67 -66 140 -159 140 -178 0 -6 3 -12
8 -14 17 -7 104 -220 115 -283 3 -17 9 -41 12 -55 18 -76 33 -289 21 -308 -4
-7 -4 -12 1 -12 9 0 8 -5255 -2 -5270 -3 -5 -3 -10 2 -10 9 0 8 -134 -2 -149
-3 -6 -3 -11 2 -11 9 0 8 -134 -2 -149 -3 -6 -3 -11 2 -11 9 0 8 -134 -2 -149
-3 -6 -3 -11 2 -11 9 0 8 -134 -2 -149 -3 -6 -3 -11 2 -11 9 0 8 -134 -2 -149
-3 -6 -3 -11 2 -11 9 0 8 -134 -2 -149 -3 -6 -3 -11 2 -11 9 0 8 -134 -2 -149
-3 -6 -3 -11 2 -11 9 0 8 -134 -2 -149 -3 -6 -3 -11 2 -11 9 0 8 -134 -2 -149
-3 -6 -3 -11 2 -11 9 0 8 -134 -2 -149 -3 -6 -2 -11 2 -11 5 0 9 -12 8 -27 l0
-28 765 0 765 0 -3 3550 c-2 3407 -2 3609 0 3624 0 3 -1 8 -2 11 -1 3 -3 40
-5 83 -3 44 -7 98 -10 120 -3 23 -8 74 -11 112 -6 67 -11 100 -14 100 -1 0 -3
18 -6 40 -7 67 -52 274 -79 370 -14 50 -27 95 -28 100 -2 6 -8 19 -14 30 -5
11 -8 26 -6 33 3 6 0 12 -7 12 -6 0 -10 6 -9 13 1 6 -4 28 -12 47 -7 19 -12
38 -11 43 1 4 -2 7 -8 7 -5 0 -10 5 -10 12 0 46 -190 380 -265 465 -5 6 -21
26 -35 45 -46 63 -235 243 -320 305 -47 35 -90 67 -97 73 -7 5 -14 10 -17 10
-2 0 -34 18 -71 41 -70 42 -239 125 -295 144 -3 1 -12 4 -20 8 -80 32 -255 86
-335 103 -11 2 -31 6 -45 9 -14 4 -36 8 -50 11 -14 2 -38 7 -55 11 -16 4 -39
8 -50 9 -11 1 -55 7 -98 14 -43 6 -101 13 -130 16 -29 2 -72 7 -97 9 -25 3
-187 7 -360 9 l-316 4 0 -764z"/>
</g>
</svg>
