<svg width="24" height="19" viewBox="0 0 24 19" fill="none" xmlns="http://www.w3.org/2000/svg">
  <path
    d="M1.90735e-06 3.9624C1.90735e-06 4.06289 1.90735e-06 4.12043 1.90735e-06 4.17883C1.90735e-06 8.64562 1.90735e-06 13.1133 1.90735e-06 17.5801C1.90735e-06 18.4003 0.587633 18.9997 1.39225 18.9997C8.47168 18.9997 15.5503 19.0006 22.6297 18.9997C23.4048 18.9989 24 18.396 24 17.6101C24 13.1322 24 8.65421 24 4.17625C24 4.11785 24 4.05945 24 3.96841C23.9291 4.01136 23.8835 4.0354 23.8421 4.0646C20.1677 6.68061 16.4925 9.29748 12.819 11.9143C12.2837 12.2957 11.7222 12.2974 11.1869 11.9169C7.51172 9.2992 3.83649 6.68233 0.161263 4.06546C0.12158 4.03712 0.0802097 4.01393 1.90735e-06 3.9624Z"
    fill="#264A87" />
  <path
    d="M0.141182 0.772951C0.543068 1.05894 0.933979 1.33721 1.32489 1.61633C4.11867 3.60625 6.91329 5.59531 9.70707 7.58523C10.4239 8.09623 11.1432 8.60466 11.8558 9.12082C11.9689 9.20327 12.0416 9.19039 12.1496 9.1131C14.9865 7.08968 17.825 5.0697 20.6635 3.04886C21.6758 2.3283 22.6881 1.60774 23.6996 0.887176C23.7477 0.852823 23.7933 0.815034 23.8735 0.752339C23.7587 0.612349 23.6599 0.46463 23.5341 0.34611C23.2834 0.109931 22.9744 0.00858835 22.635 0.0025765C22.5277 0.000858835 22.4197 0.00171767 22.3124 0.00171767C15.3639 0.00171767 8.41445 0.0025765 1.46589 0C0.931444 0 0.503386 0.189802 0.205349 0.650997C0.18593 0.681915 0.170732 0.717127 0.141182 0.772951Z"
    fill="#264A87" />
</svg>
